Disc I     http://www.imdb.com/title/tt0092965/



General
Complete name                    : Empire of the Sun.mkv
Format                           : Matroska
File size                        : 3.25 GiB
Duration                         : 2h 26mn
Overall bit rate                 : 3 177 Kbps


Video
ID                               : 1
Format                           : AVC
Duration                         : 2h 26mn
Bit rate                         : 2 153 Kbps
Width                            : 720 pixels
Height                           : 576 pixels
Display aspect ratio             : 16:9
Frame rate                       : 25.000 fps
Standard                         : PAL
Resolution                       : 8 bits
Colorimetry                      : 4:2:0
Scan type                        : Progressive
Bits/(Pixel*Frame)               : 0.208
Stream size                      : 2.20 GiB (68%)
Writing library                  : x264 core 79


Audio #1
ID                               : 2
Format                           : AC-3
Format/Info                      : Audio Coding 3
Codec ID                         : A_AC3
Duration                         : 2h 26mn
Bit rate mode                    : Constant
Bit rate                         : 384 Kbps
Channel(s)                       : 6 channels
Channel positions                : Front: L C R, Surround: L R, LFE
Sampling rate                    : 48.0 KHz
Stream size                      : 403 MiB (12%)
Language                         : English

Audio #2
ID                               : 3
Format                           : AC-3
Format/Info                      : Audio Coding 3
Format profile                   : Dolby Digital
Codec ID                         : A_AC3
Duration                         : 2h 26mn
Bit rate mode                    : Constant
Bit rate                         : 192 Kbps
Channel(s)                       : 2 channels
Channel positions                : L R
Sampling rate                    : 48.0 KHz
Stream size                      : 201 MiB (6%)
Language                         : English

Audio #3
ID                               : 4
Format                           : AC-3
Format/Info                      : Audio Coding 3
Format profile                   : Dolby Digital
Codec ID                         : A_AC3
Duration                         : 2h 26mn
Bit rate mode                    : Constant
Bit rate                         : 192 Kbps
Channel(s)                       : 2 channels
Channel positions                : L R
Sampling rate                    : 48.0 KHz
Stream size                      : 201 MiB (6%)
Language                         : German

Audio #4
ID                               : 5
Format                           : AC-3
Format/Info                      : Audio Coding 3
Format profile                   : Dolby Digital
Codec ID                         : A_AC3
Duration                         : 2h 26mn
Bit rate mode                    : Constant
Bit rate                         : 192 Kbps
Channel(s)                       : 2 channels
Channel positions                : L R
Sampling rate                    : 48.0 KHz
Stream size                      : 201 MiB (6%)
Language                         : Spanish

Text #1
Language                         : English

Text #2
Language                         : Croatian

Text #3
Language                         : Czech

Text #4
Language                         : Danish

Text #5
Language                         : Finnish

Text #6
Language                         : German

Text #7
Language                         : Greek

Text #8
Language                         : xxxxxxx

Text #9
Language                         : Hungarian

Text #10
Language                         : Norwegian

Text #11
Language                         : Polish

Text #12
Language                         : Portuguese

Text #13
Language                         : Serbian

Text #14
Language                         : Slovenian

Text #15
Language                         : Spanish

Text #16
Language                         : Spanish

Text #17
Language                         : Swedish

Text #18
Language                         : Turkish

Text #19
Language                         : English

Text #20
Language                         : German






************************************************************************************** 


                               Disc II    http://us.imdb.com/title/tt0258494/
 


A documentary about the making of director Steven Spielberg's 1987 film "Empire of the Sun."



Complete name                    : Empire of the SunThe China Odyssey [Documentary,Trailer].mkv
Format                           : Matroska
File size                        : 723 MiB
Duration                         : 49mn 9s
Overall bit rate                 : 2 057 Kbps


Video
ID                               : 1
Format                           : AVC
Duration                         : 49mn 9s
Bit rate                         : 1 904 Kbps
Nominal bit rate                 : 1 875 Kbps
Width                            : 696 pixels
Height                           : 574 pixels
Display aspect ratio             : 1.293
Original display aspect ratio    : 1.294
Frame rate                       : 25.000 fps
Resolution                       : 8 bits
Colorimetry                      : 4:2:0
Scan type                        : Progressive
Bits/(Pixel*Frame)               : 0.191
Stream size                      : 669 MiB (93%)
Writing library                  : x264 core 79


Audio
ID                               : 2
Format                           : MPEG Audio
Format version                   : Version 1
Format profile                   : Layer 3
Mode                             : Joint stereo / MS Stereo
Codec ID                         : A_MPEG/L3
Codec ID/Hint                    : MP3
Duration                         : 49mn 9s
Bit rate mode                    : Constant
Bit rate                         : 112 Kbps
Channel(s)                       : 2 channels
Sampling rate                    : 48.0 KHz
Stream size                      : 39.4 MiB (5%)
Language                         : English

Text #1
Language                         : English

Text #2
Language                         : Arabic

Text #3
Language                         : Czech

Text #4
Language                         : Danish

Text #5
Language                         : Dutch

Text #6
Language                         : Finnish

Text #7
Language                         : French

Text #8
Language                         : German

Text #9
Language                         : xxxxxx

Text #10
Language                         : Hungarian

Text #11
Language                         : Italian

Text #12
Language                         : Norwegian

Text #13
Language                         : Polish

Text #14
Language                         : Portuguese

Text #15
Language                         : Russian

Text #16
Language                         : Spanish

Text #17
Language                         : Swedish

Text #18
Language                         : Turkish



